<?xml version="1.0" standalone="no"?>
<!DOCTYPE svg PUBLIC "-//W3C//DTD SVG 20010904//EN"
 "http://www.w3.org/TR/2001/REC-SVG-20010904/DTD/svg10.dtd">
<svg version="1.0" xmlns="http://www.w3.org/2000/svg"
 width="256.000000pt" height="256.000000pt" viewBox="0 0 256.000000 256.000000"
 preserveAspectRatio="xMidYMid meet">
<metadata>
Created by potrace 1.14, written by Peter Selinger 2001-2017
</metadata>
<g transform="translate(0.000000,256.000000) scale(0.100000,-0.100000)"
fill="#000000" stroke="none">
<path d="M1243 2336 c0 -14 25 -14 50 0 9 5 9 4 0 -6 -15 -16 -93 -23 -93 -8
0 5 -6 8 -14 5 -7 -3 -19 0 -25 6 -7 7 -12 8 -11 2 4 -20 0 -35 -11 -35 -5 0
-8 4 -4 9 3 5 1 12 -4 16 -6 3 -8 -3 -6 -15 2 -11 0 -20 -6 -20 -5 0 -9 10
-10 23 0 21 -1 21 -8 2 -5 -11 -4 -25 1 -32 7 -9 7 -13 -1 -13 -10 0 -15 14
-12 33 1 5 -3 6 -8 3 -5 -4 -12 0 -15 6 -3 7 -3 3 0 -9 3 -13 0 -31 -6 -40
-10 -16 -10 -16 -6 2 3 11 1 27 -5 35 -9 12 -10 12 -5 -4 5 -14 2 -17 -10 -12
-12 5 -15 2 -10 -11 5 -16 4 -16 -9 1 -8 10 -12 23 -8 29 3 6 1 7 -5 3 -6 -4
-9 -13 -6 -20 3 -7 -2 -19 -11 -26 -8 -7 -15 -9 -15 -5 0 4 -6 2 -14 -4 -11
-9 -16 -9 -22 0 -5 8 -3 9 6 4 9 -6 11 -4 5 5 -6 10 -13 7 -27 -11 -11 -13
-17 -17 -13 -9 4 8 -1 6 -9 -4 -9 -11 -19 -17 -22 -13 -4 4 -1 15 7 24 13 16
12 17 -3 4 -12 -9 -16 -22 -13 -41 3 -19 -1 -32 -13 -41 -14 -11 -15 -11 -4 1
16 18 16 38 0 22 -7 -7 -17 -12 -23 -12 -5 0 -2 5 8 11 9 5 17 17 17 26 0 14
-2 14 -14 -2 -12 -17 -16 -18 -32 -5 -16 13 -17 13 -9 0 9 -14 17 -49 12 -51
-1 0 -22 -2 -45 -5 -33 -4 -42 -2 -36 7 4 8 3 10 -5 5 -6 -4 -9 -11 -6 -16 3
-5 -3 -13 -12 -19 -10 -6 -13 -11 -7 -11 5 0 14 4 20 10 6 6 14 3 22 -10 7
-12 8 -21 2 -25 -6 -4 -9 -1 -8 6 2 6 -3 14 -11 17 -8 3 -11 0 -7 -7 5 -8 0
-8 -19 -1 -33 13 -45 12 -23 -1 9 -5 15 -15 12 -22 -4 -11 -17 -15 -61 -19 -7
-1 -15 -8 -17 -15 -3 -8 -2 -12 3 -9 5 3 11 -1 15 -9 3 -8 0 -17 -6 -21 -7 -5
-8 -2 -3 6 6 10 4 12 -9 7 -10 -4 -21 -7 -26 -7 -5 0 -12 -9 -15 -20 -8 -25
-26 -27 -20 -2 3 9 -1 4 -9 -13 -8 -16 -11 -34 -8 -40 3 -5 -3 -3 -13 5 -17
14 -18 13 -12 -2 3 -10 -1 -22 -11 -30 -13 -11 -15 -11 -7 2 5 9 0 8 -13 -4
-18 -16 -20 -22 -10 -35 7 -9 9 -13 5 -10 -5 4 -19 -3 -32 -15 -19 -16 -21
-24 -12 -35 10 -12 9 -14 -6 -8 -11 4 -17 2 -17 -8 0 -7 -6 -20 -13 -27 -20
-20 -27 -44 -15 -56 6 -6 6 -12 -3 -17 -8 -5 -10 -4 -5 3 4 7 2 12 -5 12 -6 0
-9 -8 -6 -20 3 -10 -2 -25 -10 -31 -12 -11 -12 -14 1 -21 8 -5 14 -14 12 -21
-1 -6 -1 -9 1 -4 3 4 9 5 14 2 5 -4 6 1 3 9 -3 9 -10 16 -15 16 -5 0 -9 5 -9
11 0 5 4 8 9 4 5 -3 13 0 17 6 5 8 3 9 -6 4 -9 -5 -11 -4 -6 4 10 16 29 2 21
-16 -4 -13 -3 -14 10 -3 17 14 21 35 5 25 -19 -12 -10 2 31 44 22 24 38 49 36
55 -3 7 1 13 9 13 16 0 19 -13 4 -22 -6 -4 -7 -11 -4 -17 4 -7 2 -8 -4 -4 -7
4 -13 2 -13 -3 -1 -6 -2 -14 -4 -18 -14 -51 -18 -63 -25 -63 -14 0 1 -36 20
-47 16 -11 18 -9 16 17 -2 25 0 27 17 18 14 -7 17 -7 13 1 -4 6 -2 11 4 11 7
0 7 7 -1 23 -11 19 -11 21 3 9 11 -9 18 -10 23 -2 3 5 1 10 -5 10 -7 0 -6 5 2
14 7 8 16 12 20 10 3 -2 5 7 3 21 -1 16 3 25 11 25 8 0 14 4 14 9 0 6 -9 8
-20 6 -11 -2 -18 0 -15 5 3 4 16 7 28 6 26 -3 32 18 13 44 -6 8 0 6 13 -5 l24
-20 -13 25 c-10 21 -10 23 1 13 23 -22 33 -14 13 10 -10 12 -15 19 -10 15 10
-8 51 11 42 19 -3 3 15 25 39 48 43 39 59 64 33 49 -7 -4 -10 -3 -5 1 4 5 -5
17 -20 27 -16 10 -24 18 -20 18 5 0 22 -9 38 -21 33 -23 58 -17 37 9 -11 15
-11 15 4 4 11 -9 18 -10 23 -2 3 6 10 8 15 5 5 -3 12 0 16 6 4 8 3 9 -4 5 -7
-4 -12 -3 -12 2 0 5 9 12 20 15 11 3 18 1 14 -4 -3 -5 -1 -9 3 -9 5 0 14 12
21 28 11 26 11 26 7 2 -3 -14 -2 -19 1 -12 3 6 11 9 16 6 6 -4 8 -2 5 3 -8 13
20 26 35 17 5 -3 12 3 14 14 4 13 13 18 30 16 13 -1 22 1 20 4 -2 4 3 14 12
22 14 13 15 12 9 -3 -3 -9 -1 -19 5 -23 6 -4 8 -3 4 4 -3 6 3 13 14 17 11 3
20 14 20 23 0 13 2 13 15 -4 11 -13 14 -14 13 -4 -2 10 4 14 16 12 10 -2 15 1
12 6 -3 5 13 8 34 6 25 -1 40 2 40 9 0 8 4 7 9 -2 7 -11 11 -10 20 5 10 18 10
18 11 -1 1 -19 1 -19 14 -2 13 17 32 25 22 9 -6 -10 76 -8 94 3 9 5 11 4 6 -3
-4 -7 -1 -12 9 -12 9 0 13 4 10 10 -3 6 1 7 9 4 9 -3 14 -9 11 -13 -2 -4 2 -8
10 -8 8 0 12 4 9 9 -3 4 0 8 5 8 6 0 11 -6 11 -12 0 -9 4 -8 10 2 6 10 10 11
10 3 0 -7 11 -13 24 -13 13 0 27 -6 29 -12 4 -10 6 -10 6 0 1 7 6 10 13 6 8
-5 9 -2 5 9 -3 9 -3 19 2 21 4 3 8 -1 9 -9 1 -8 3 -21 4 -28 1 -9 12 -12 31
-9 20 3 28 1 23 -7 -5 -7 -1 -9 10 -4 12 4 15 3 10 -5 -5 -8 -1 -10 10 -5 10
3 15 2 12 -3 -4 -5 4 -10 17 -10 24 -2 28 17 7 38 -8 8 -15 8 -28 -3 -15 -12
-17 -12 -9 0 6 11 4 13 -8 8 -9 -3 -19 -2 -22 3 -3 5 -14 7 -24 5 -19 -3 -23
16 -7 32 4 4 6 4 4 -2 -2 -5 2 -10 7 -10 6 0 9 4 7 9 -2 5 3 4 11 -2 8 -7 18
-8 22 -4 5 4 5 1 1 -5 -4 -7 -2 -13 3 -13 19 0 26 5 23 15 -1 6 4 2 11 -7 8
-10 17 -14 21 -10 4 4 6 0 4 -8 -2 -10 5 -15 22 -15 14 0 25 -6 26 -12 3 -26
4 -28 13 -14 5 7 14 10 20 7 6 -4 9 -11 6 -16 -3 -5 -1 -11 5 -15 5 -3 10 2
10 12 1 14 4 12 13 -7 12 -25 27 -33 60 -32 9 0 15 -4 11 -9 -3 -6 -13 -8 -21
-5 -8 3 -11 1 -8 -5 4 -5 15 -7 26 -4 11 4 19 2 19 -6 0 -8 4 -8 16 1 12 11
15 11 12 0 -2 -9 6 -14 19 -15 12 0 25 -4 30 -9 4 -5 3 -6 -3 -3 -7 4 -11 -3
-11 -18 0 -17 3 -23 11 -17 14 12 46 11 46 0 0 -5 -10 -7 -22 -3 -21 5 -21 5
2 -9 14 -9 19 -15 11 -16 -15 0 -6 -14 10 -16 5 -1 13 -2 19 -3 5 0 7 -8 4
-16 -4 -8 -10 -12 -15 -9 -5 3 -6 10 -3 16 4 7 2 8 -4 4 -6 -4 -9 -13 -6 -20
3 -8 1 -17 -4 -20 -6 -3 -13 1 -16 10 -4 10 -2 13 7 8 8 -5 8 -3 -1 7 -7 8
-17 15 -22 15 -6 1 -14 2 -19 3 -6 0 -8 10 -6 20 2 11 -3 25 -11 31 -7 7 -11
17 -8 24 3 6 -1 3 -9 -7 -15 -18 -34 -7 -22 12 3 5 1 12 -5 16 -9 6 -15 -8
-11 -29 1 -5 -5 -4 -13 4 -9 7 -16 9 -16 5 0 -10 53 -51 60 -46 3 1 4 7 2 13
-1 5 2 6 8 3 6 -4 9 -13 6 -21 -6 -16 23 -56 36 -48 4 3 8 0 8 -6 0 -6 10 -21
23 -34 48 -50 75 -84 70 -90 -4 -3 -1 -6 6 -6 7 0 9 -5 5 -12 -4 -7 -3 -8 4
-4 6 4 9 14 6 24 -5 14 -4 15 5 2 6 -8 8 -23 5 -32 -3 -9 7 -35 21 -58 21 -34
29 -39 41 -30 17 15 19 24 3 14 -7 -4 -10 -1 -7 7 3 8 12 12 19 10 8 -2 19 -4
26 -4 7 0 9 -5 6 -10 -4 -7 1 -8 12 -3 15 5 16 4 5 -9 -10 -12 -10 -19 -1 -28
9 -9 14 -9 21 3 7 11 9 6 6 -17 -2 -24 1 -33 11 -33 10 0 14 7 10 19 -2 10 0
25 5 32 8 11 9 10 4 -3 -3 -10 -1 -18 4 -18 6 0 9 -3 9 -7 -3 -20 3 -56 8 -45
4 10 8 10 18 2 11 -9 14 -5 12 24 -1 20 -5 36 -9 36 -5 0 -8 5 -8 11 0 5 4 7
10 4 6 -4 7 1 3 12 -6 16 -5 17 13 3 19 -14 19 -14 1 7 -12 13 -14 23 -7 26 6
3 5 4 -2 3 -7 -2 -12 -8 -11 -14 1 -5 -5 -16 -14 -24 -14 -11 -16 -11 -8 2 5
8 10 20 11 25 1 6 5 18 9 28 4 10 3 17 -5 17 -6 0 -9 -4 -5 -9 3 -5 0 -13 -7
-17 -7 -4 -10 -4 -6 1 4 4 -1 20 -12 35 -11 15 -17 29 -14 32 2 3 -2 11 -10
17 -8 7 -12 19 -9 27 3 9 -2 14 -13 15 -18 0 -17 1 1 9 16 7 16 9 4 9 -9 1
-20 8 -23 17 -3 8 -10 13 -15 10 -5 -3 -12 1 -15 10 -4 10 -2 13 7 8 9 -5 8
-3 -1 7 -11 12 -14 12 -23 -1 -7 -11 -8 -8 -5 13 4 21 1 27 -9 24 -19 -8 -27
4 -13 20 6 8 7 13 2 12 -21 -4 -35 2 -29 11 3 6 -1 10 -9 10 -9 0 -16 8 -16
18 0 27 -11 34 -28 19 -9 -7 -13 -7 -9 -1 8 13 -46 64 -68 64 -14 0 -19 12
-16 33 1 6 -32 12 -53 8 -5 -1 -6 5 -3 14 4 8 1 15 -5 15 -6 0 -20 8 -30 17
-18 16 -19 16 -13 -3 7 -19 6 -19 -9 0 -9 11 -16 24 -16 30 0 6 -5 5 -12 -2
-9 -9 -15 -7 -25 6 -8 9 -12 11 -8 5 4 -9 1 -11 -9 -7 -9 3 -13 10 -10 15 5 9
-9 13 -33 10 -7 -1 -13 6 -13 16 0 15 -2 16 -10 3 -7 -11 -10 -11 -10 -2 0 7
-4 10 -10 7 -5 -3 -10 -2 -10 3 0 6 -7 13 -16 16 -14 5 -15 4 -4 -9 11 -13 10
-14 -4 -9 -9 3 -16 11 -16 18 0 6 -5 4 -10 -4 -8 -13 -10 -13 -10 1 0 18 -50
24 -61 7 -3 -5 -9 -2 -12 7 -5 10 -3 14 5 9 7 -4 8 -3 4 5 -5 7 -13 8 -24 2
-11 -6 -20 -4 -30 7 -7 10 -11 12 -8 5 4 -6 2 -14 -4 -18 -5 -3 -10 -1 -10 4
0 6 -18 11 -41 11 -24 0 -38 4 -34 10 3 5 0 7 -9 4 -8 -3 -12 -13 -9 -22 4
-13 3 -14 -5 -3 -5 7 -15 11 -21 7 -7 -5 -9 -1 -4 11 5 14 0 13 -23 -7 -15
-14 -23 -18 -16 -9 10 14 10 18 -1 22 -8 3 -20 1 -28 -3 -7 -5 -18 -5 -24 0
-8 6 -12 5 -12 -4z m-58 -34 c-3 -3 -11 0 -18 7 -9 10 -8 11 6 5 10 -3 15 -9
12 -12z m-175 -56 c0 -3 -4 -8 -10 -11 -5 -3 -10 -1 -10 4 0 6 5 11 10 11 6 0
10 -2 10 -4z m371 -13 c13 -16 12 -17 -3 -4 -10 7 -18 15 -18 17 0 8 8 3 21
-13z m-397 -12 c4 -5 -3 -7 -14 -4 -23 6 -26 13 -6 13 8 0 17 -4 20 -9z m513
-18 c0 -9 -4 -10 -14 -2 -7 6 -13 12 -13 14 0 1 6 2 13 2 8 0 14 -6 14 -14z
m-582 -11 c-3 -3 -11 0 -18 7 -9 10 -8 11 6 5 10 -3 15 -9 12 -12z m35 8 c0
-5 -4 -10 -10 -10 -5 0 -10 5 -10 10 0 6 5 10 10 10 6 0 10 -4 10 -10z m-50
-30 c6 -11 8 -20 6 -20 -3 0 -10 9 -16 20 -6 11 -8 20 -6 20 3 0 10 -9 16 -20z
m122 -2 c-7 -7 -12 -8 -12 -2 0 14 12 26 19 19 2 -3 -1 -11 -7 -17z m-195 -20
c-3 -8 -6 -5 -6 6 -1 11 2 17 5 13 3 -3 4 -12 1 -19z m143 17 c0 -7 -30 -13
-34 -7 -3 4 4 9 15 9 10 1 19 0 19 -2z m680 -5 c0 -5 -4 -10 -10 -10 -5 0 -10
5 -10 10 0 6 5 10 10 10 6 0 10 -4 10 -10z m-848 -27 c-6 -3 -9 -10 -6 -15 4
-6 2 -8 -4 -4 -5 3 -12 1 -14 -6 -3 -7 -7 -3 -10 9 -4 15 -2 20 7 17 7 -3 16
0 20 6 4 6 10 8 14 4 3 -4 0 -9 -7 -11z m115 -8 c0 -8 -4 -12 -9 -9 -5 3 -6
10 -3 15 9 13 12 11 12 -6z m909 -7 c3 -4 -1 -5 -10 -4 -8 1 -18 5 -22 8 -3 4
1 5 10 4 8 -1 18 -5 22 -8z m-986 -14 c0 -8 -19 -13 -24 -6 -3 5 1 9 9 9 8 0
15 -2 15 -3z m-110 -30 c8 -8 9 -14 4 -13 -21 4 -28 -2 -14 -11 8 -5 10 -10 4
-10 -6 0 -17 7 -24 16 -11 12 -11 15 1 12 8 -2 13 3 12 10 -4 16 2 15 17 -4z
m-47 -57 c7 3 8 2 4 -3 -5 -5 -14 -9 -20 -9 -7 -1 -11 -7 -9 -15 3 -11 0 -11
-14 1 -16 13 -17 12 -10 -6 5 -15 4 -17 -5 -8 -13 13 -3 37 12 28 9 -6 12 4
10 40 0 14 2 12 10 -8 6 -16 15 -24 22 -20z m-96 -22 c0 -8 -4 -12 -9 -9 -5 3
-6 10 -3 15 9 13 12 11 12 -6z m1294 -2 c13 -16 12 -17 -3 -4 -10 7 -18 15
-18 17 0 8 8 3 21 -13z m-1291 -29 c0 -8 -19 -13 -24 -6 -3 5 1 9 9 9 8 0 15
-2 15 -3z m33 -19 c-6 -16 -16 -19 -26 -8 -9 8 13 34 24 28 4 -3 6 -12 2 -20z
m1424 0 c0 -8 -4 -12 -9 -9 -5 3 -6 10 -3 15 9 13 12 11 12 -6z m-1451 -27 c4
-7 3 -8 -4 -4 -7 4 -12 3 -12 -2 0 -5 -9 -19 -20 -32 -11 -12 -17 -28 -13 -34
3 -6 2 -8 -2 -3 -5 4 -16 -4 -25 -18 -15 -23 -18 -24 -30 -10 -11 13 -10 14 5
9 14 -6 16 -4 10 6 -6 9 -4 11 5 5 10 -6 12 -4 7 9 -4 9 -3 15 2 12 9 -6 26
22 22 37 -1 5 3 5 9 2 7 -4 14 2 17 14 6 23 18 27 29 9z m1438 -10 c-5 -8 -1
-9 10 -5 9 4 15 3 12 -2 -3 -5 1 -14 9 -21 8 -7 12 -16 9 -21 -3 -5 3 -9 12
-9 14 0 15 -3 6 -12 -10 -10 -15 -10 -20 -1 -4 7 -13 9 -21 4 -19 -12 28 -22
50 -10 12 6 20 5 25 -3 4 -7 3 -8 -4 -4 -7 4 -12 3 -12 -1 0 -5 9 -14 20 -21
23 -14 27 -37 6 -29 -10 4 -13 1 -9 -8 3 -8 9 -13 13 -10 4 2 15 -4 25 -15 17
-19 17 -19 -3 -15 -24 4 -47 -19 -36 -36 4 -7 3 -10 -2 -6 -16 10 -47 77 -40
84 4 5 12 0 17 -10 15 -26 30 -20 17 8 -6 13 -16 23 -22 22 -6 -1 -10 4 -8 11
1 6 -2 13 -8 13 -5 1 -15 2 -20 3 -6 0 -21 15 -35 31 -13 17 -29 35 -34 42 -7
8 -3 16 12 26 24 16 42 13 31 -5z m-1550 -6 c3 -5 -1 -9 -9 -9 -8 0 -12 4 -9
9 3 4 7 8 9 8 2 0 6 -4 9 -8z m1613 -34 c-3 -7 -5 -2 -5 12 0 14 2 19 5 13 2
-7 2 -19 0 -25z m-1570 -101 c0 -8 -6 -14 -14 -14 -9 0 -10 4 -2 14 6 7 12 13
14 13 1 0 2 -6 2 -13z"/>
<path d="M2012 1907 c-14 -17 0 -39 20 -32 9 4 19 2 23 -4 3 -7 0 -8 -9 -5 -9
3 -16 1 -16 -5 0 -13 27 -15 35 -1 3 5 -6 17 -20 26 -13 9 -22 20 -19 25 8 14
-2 11 -14 -4z"/>
<path d="M2093 1804 c0 -8 2 -12 5 -9 3 2 13 0 23 -6 27 -14 24 -4 -4 14 -20
13 -24 13 -24 1z"/>
<path d="M2101 1733 c12 -20 15 -21 29 -8 9 8 20 12 25 8 4 -5 5 -2 1 5 -6 10
-11 10 -22 1 -11 -9 -18 -8 -31 2 -15 13 -15 12 -2 -8z"/>
<path d="M1210 2329 c0 -5 5 -7 10 -4 6 3 10 8 10 11 0 2 -4 4 -10 4 -5 0 -10
-5 -10 -11z"/>
<path d="M950 2279 c0 -5 5 -9 10 -9 6 0 12 0 15 0 14 0 8 13 -7 16 -10 1 -18
-2 -18 -7z"/>
<path d="M816 2227 c3 -10 9 -15 12 -12 3 3 0 11 -7 18 -10 9 -11 8 -5 -6z"/>
<path d="M777 2184 c6 -17 5 -18 -13 -5 -18 14 -18 14 -2 -4 13 -13 21 -16 28
-9 8 8 6 15 -5 24 -13 11 -14 10 -8 -6z"/>
<path d="M1680 2150 c-8 -5 -10 -10 -5 -10 6 0 17 5 25 10 8 5 11 10 5 10 -5
0 -17 -5 -25 -10z"/>
<path d="M1688 2133 c-19 -5 -25 -23 -8 -23 19 0 25 -3 37 -19 7 -9 13 -11 13
-6 0 6 5 3 11 -5 9 -12 10 -11 4 5 -6 20 -6 20 13 0 11 -11 17 -24 14 -29 -3
-5 0 -6 6 -2 5 3 12 1 14 -5 6 -17 56 -19 62 -4 3 9 0 12 -8 9 -8 -3 -21 5
-30 18 -19 26 -21 17 -4 -15 10 -20 10 -21 -5 -8 -10 7 -17 20 -17 28 0 8 -5
11 -12 7 -8 -5 -9 -2 -4 12 4 10 4 15 0 11 -11 -10 -35 13 -27 27 4 7 1 7 -8
-1 -9 -7 -20 -9 -25 -4 -5 4 -17 6 -26 4z m46 -16 c4 4 4 -1 0 -11 -6 -16 -8
-17 -16 -2 -5 9 -14 13 -20 10 -7 -4 -8 -2 -4 5 6 8 12 9 20 2 7 -6 16 -8 20
-4z"/>
<path d="M650 2089 c0 -5 5 -7 10 -4 6 3 10 8 10 11 0 2 -4 4 -10 4 -5 0 -10
-5 -10 -11z"/>
<path d="M1883 2035 c0 -8 4 -12 9 -9 5 3 6 10 3 15 -9 13 -12 11 -12 -6z"/>
<path d="M1936 1982 c-3 -5 -1 -14 5 -22 5 -8 9 -11 9 -6 0 5 8 2 18 -5 15
-12 16 -12 5 2 -7 9 -10 18 -7 21 2 3 -2 8 -10 11 -9 4 -17 3 -20 -1z"/>
<path d="M2230 1826 c0 -2 7 -9 15 -16 13 -11 14 -10 9 4 -5 14 -24 23 -24 12z"/>
<path d="M2262 1771 c7 -11 16 -17 20 -15 5 3 2 12 -6 20 -21 20 -28 17 -14
-5z"/>
<path d="M426 1711 c-13 -14 -14 -21 -5 -27 8 -4 10 -3 5 4 -4 7 -3 12 2 12 6
0 12 7 16 15 7 20 3 19 -18 -4z"/>
<path d="M2333 1641 c0 -11 5 -18 9 -15 4 3 5 11 1 19 -7 21 -12 19 -10 -4z"/>
<path d="M187 1532 c-177 -93 -181 -376 -6 -468 46 -24 55 -26 120 -25 159 1
265 171 215 343 -18 63 -83 138 -140 162 -52 22 -134 17 -189 -12z m171 -27
c57 -23 109 -88 122 -152 30 -141 -52 -268 -178 -277 -55 -3 -95 11 -138 51
-170 154 -12 462 194 378z"/>
<path d="M654 1551 c-2 -2 -4 -118 -4 -258 l0 -253 23 0 c21 0 22 3 22 92 l0
93 115 5 c109 5 117 7 148 34 51 46 70 130 44 197 -13 34 -77 89 -105 90 -60
4 -239 4 -243 0z m268 -56 c35 -26 48 -56 48 -110 0 -35 -6 -52 -29 -77 -29
-33 -30 -33 -135 -36 -58 -2 -107 0 -107 5 -1 4 -3 60 -4 124 l-2 116 101 -1
c84 -1 105 -4 128 -21z"/>
<path d="M1236 1535 c-9 -13 -16 -29 -16 -34 0 -5 -6 -22 -14 -38 -7 -15 -20
-44 -29 -63 -8 -19 -22 -51 -30 -70 -8 -19 -27 -64 -41 -100 -15 -36 -31 -74
-36 -85 -26 -57 -39 -98 -34 -106 6 -11 44 7 44 21 0 6 14 41 31 78 l30 68
119 0 c65 -1 120 -3 122 -6 3 -3 18 -39 35 -80 23 -56 36 -76 52 -78 27 -4 26
5 -5 75 -42 95 -49 112 -104 243 -62 149 -87 200 -99 200 -5 0 -16 -11 -25
-25z m40 -67 c3 -13 14 -41 24 -63 51 -117 60 -139 60 -151 0 -10 -24 -13
-105 -12 l-104 0 14 32 c7 17 30 73 51 124 20 50 41 92 45 92 4 0 11 -10 15
-22z"/>
<path d="M1675 1547 c-16 -7 -37 -16 -45 -22 -65 -43 -72 -161 -12 -203 15
-11 59 -27 97 -36 149 -36 185 -60 185 -122 0 -92 -159 -124 -273 -53 -48 29
-67 30 -67 4 0 -17 64 -55 120 -70 57 -15 150 -11 187 8 42 22 71 58 77 96 5
39 -15 97 -42 117 -13 11 -101 43 -132 49 -83 16 -123 33 -142 60 -18 24 -8
84 17 109 44 44 153 47 219 6 29 -17 35 -18 45 -6 10 12 5 20 -29 42 -34 22
-55 28 -108 30 -37 1 -80 -3 -97 -9z"/>
<path d="M2174 1539 c-90 -43 -146 -134 -148 -238 -1 -105 44 -187 132 -238
38 -23 58 -27 108 -26 68 1 103 15 156 65 127 117 105 330 -44 424 -56 35
-146 41 -204 13z m188 -50 c72 -50 100 -109 99 -201 -2 -83 -36 -142 -108
-187 -90 -56 -207 -19 -260 83 -13 26 -18 42 -28 106 -3 19 18 99 34 129 50
92 181 127 263 70z"/>
<path d="M2203 996 c5 -14 3 -17 -8 -12 -17 6 -19 -2 -7 -22 7 -10 12 -8 24 5
15 16 15 19 0 33 -14 13 -15 12 -9 -4z"/>
<path d="M390 986 c7 -7 13 -7 20 0 6 6 3 10 -10 10 -13 0 -16 -4 -10 -10z"/>
<path d="M393 956 c4 -11 1 -13 -10 -9 -13 5 -15 1 -10 -24 4 -21 1 -35 -8
-43 -18 -15 -32 7 -16 23 9 9 11 7 5 -8 -5 -16 -4 -18 6 -8 13 12 5 37 -10 28
-5 -3 -11 -1 -15 5 -3 5 1 10 9 10 19 0 21 16 4 26 -7 4 -10 4 -6 -1 4 -4 -3
-16 -15 -27 -12 -11 -16 -17 -9 -13 7 4 12 -1 13 -14 3 -50 3 -50 44 -35 16 6
18 5 8 -7 -15 -16 -17 -33 -3 -24 6 3 10 4 10 0 0 -3 -10 -10 -22 -15 -19 -7
-19 -9 -5 -9 10 -1 15 -5 12 -11 -3 -5 -2 -10 4 -10 5 0 12 8 14 18 3 9 4 5 4
-9 -1 -20 -5 -25 -17 -22 -9 4 -7 -1 5 -10 11 -9 16 -17 11 -17 -5 0 -2 -8 7
-17 8 -10 16 -22 18 -28 6 -33 36 -57 36 -29 0 7 -5 10 -10 7 -6 -3 -7 -1 -3
5 3 6 2 13 -4 17 -6 4 -7 11 -4 17 5 7 2 8 -6 3 -9 -6 -11 -4 -5 5 6 9 4 11
-6 5 -8 -5 -11 -5 -7 0 4 4 4 13 -2 19 -5 7 -5 17 0 26 7 10 10 11 10 3 0 -24
1 -28 13 -43 25 -32 34 -56 32 -85 -2 -17 -1 -24 2 -17 3 9 14 0 29 -25 13
-21 24 -33 24 -28 0 6 -6 17 -12 24 -11 10 -10 11 5 6 9 -4 17 -14 17 -22 0
-22 58 -75 73 -68 7 4 3 -1 -8 -10 -19 -16 -19 -16 10 -10 27 6 28 5 12 -8
-16 -13 -16 -15 -2 -21 9 -3 13 -2 10 4 -3 6 1 10 10 10 9 0 13 -4 10 -10 -3
-5 1 -10 9 -10 9 0 16 -6 16 -13 0 -18 32 -47 51 -46 8 0 6 4 -6 10 l-20 9 20
-3 c14 -2 19 -9 17 -22 -3 -16 -1 -17 11 -6 12 9 17 9 23 0 4 -8 3 -9 -4 -5
-7 4 -12 2 -12 -5 0 -6 8 -9 20 -6 12 3 20 0 20 -8 0 -7 7 -16 16 -19 12 -5
14 -3 8 7 -5 7 -2 6 6 -4 14 -15 58 -42 70 -44 3 0 16 -7 29 -14 13 -7 20 -8
17 -2 -5 7 2 7 24 0 16 -6 28 -14 25 -18 -2 -4 2 -8 10 -8 8 0 12 5 9 11 -3 6
5 0 17 -14 15 -17 20 -19 16 -7 -5 14 -3 16 11 8 9 -5 21 -9 25 -9 5 0 12 -4
15 -8 4 -4 2 -4 -5 0 -6 3 -14 2 -17 -3 -7 -11 13 -9 31 2 9 6 11 3 6 -9 -4
-11 -3 -15 5 -10 6 3 13 2 17 -4 4 -6 10 -8 15 -5 5 3 11 1 15 -5 4 -7 12 -7
24 0 10 5 20 7 23 5 2 -3 23 -7 47 -9 33 -3 41 -1 37 10 -3 9 0 11 11 7 10 -4
14 -2 10 4 -7 11 22 11 40 0 6 -4 14 -3 18 3 4 6 13 5 25 -2 10 -7 17 -15 15
-19 -3 -3 11 1 30 9 19 9 32 19 30 23 -3 4 11 5 31 2 27 -4 34 -2 29 7 -6 9
-3 9 12 1 11 -6 24 -7 28 -3 5 4 4 0 0 -8 -6 -10 -1 -8 13 4 12 10 20 22 17
26 -2 4 2 7 10 7 11 0 10 -6 -3 -26 l-16 -26 22 19 c11 10 28 16 37 13 21 -9
19 -1 -7 24 l-23 21 23 -12 c22 -11 23 -10 18 8 -4 12 -1 24 6 28 25 16 36 12
30 -9 -5 -20 -6 -20 -12 -2 -5 13 -9 15 -14 6 -4 -6 -3 -18 3 -25 6 -7 8 -16
4 -19 -3 -4 -4 -7 -1 -7 8 0 40 50 42 66 1 7 5 16 8 20 8 8 3 -40 -6 -54 -11
-19 19 -7 45 17 20 19 21 22 4 13 -18 -9 -21 -8 -21 13 0 13 4 21 8 19 5 -3 6
-10 3 -15 -4 -5 -2 -9 4 -9 5 0 12 8 14 18 4 16 5 16 6 0 0 -10 6 -18 12 -18
8 0 7 -6 -2 -17 -12 -16 -11 -15 8 0 12 11 27 16 34 11 8 -4 10 -3 5 4 -4 7
-2 12 3 12 6 0 11 5 11 11 0 8 -4 8 -14 0 -18 -15 -41 -5 -54 24 -9 18 -8 26
1 31 7 4 9 4 5 -1 -10 -11 11 -47 23 -40 5 4 7 11 4 16 -4 5 -1 9 4 9 14 0 14
-13 -1 -28 -16 -16 4 -16 21 1 11 9 14 9 18 0 4 -10 12 -9 34 3 16 8 27 19 23
25 -3 6 0 10 7 8 27 -3 39 1 39 14 0 8 11 20 25 27 14 7 25 18 25 23 0 5 -7 4
-15 -3 -8 -7 -15 -9 -15 -5 0 4 8 14 18 22 16 13 15 14 -8 9 -24 -5 -24 -4 -6
9 16 12 22 12 28 2 4 -6 8 -9 9 -4 1 4 2 10 3 15 3 16 18 32 26 27 5 -3 13 2
18 11 6 11 11 13 16 5 4 -6 2 -11 -3 -11 -6 0 -10 -6 -9 -12 2 -8 -6 -13 -18
-12 -11 1 -21 -5 -21 -12 0 -9 4 -11 12 -4 7 6 16 5 25 -3 10 -9 11 -9 6 1 -4
6 -3 12 2 12 5 0 12 9 15 21 3 12 10 18 16 14 7 -3 8 0 5 9 -3 9 -9 15 -12 14
-19 -2 -32 3 -32 13 0 8 5 8 15 -1 15 -12 20 -4 16 22 0 4 7 4 16 1 12 -5 14
-3 8 7 -6 9 -4 11 5 5 10 -6 12 -4 7 8 -4 11 -1 15 14 12 10 -2 24 -7 29 -10
6 -4 10 -3 9 2 -4 23 14 51 29 46 10 -4 14 -2 9 2 -4 5 0 19 9 33 9 13 11 21
5 18 -6 -4 -11 -2 -11 4 0 6 -5 8 -12 4 -7 -4 -8 -3 -4 4 4 6 13 9 21 6 7 -3
22 4 31 15 19 22 27 71 12 71 -4 0 -6 -12 -4 -26 4 -21 3 -24 -9 -14 -8 7 -12
16 -9 22 3 5 1 15 -6 23 -8 9 -8 15 0 20 6 3 7 11 4 17 -4 7 -2 8 5 4 9 -6 9
-11 0 -22 -8 -10 -8 -14 0 -14 6 0 12 5 12 10 1 6 2 15 3 20 0 6 8 15 16 21
13 9 12 10 -2 5 -13 -4 -18 0 -18 12 0 11 -5 8 -14 -10 -22 -42 -46 -74 -46
-61 0 7 4 15 10 18 6 3 10 13 10 22 0 14 -3 14 -19 -3 -10 -10 -17 -27 -15
-37 2 -10 -1 -15 -6 -12 -4 3 -7 13 -6 22 3 17 -22 53 -37 53 -4 0 -2 -10 4
-22 11 -21 11 -22 -5 -9 -14 12 -16 12 -10 -4 5 -12 4 -16 -3 -12 -6 4 -17 -1
-24 -11 -13 -16 -13 -16 5 -2 18 14 19 13 13 -2 -3 -10 -2 -18 4 -18 5 0 12 7
15 15 7 16 24 21 24 6 0 -5 -13 -15 -30 -23 -30 -13 -42 -30 -17 -26 7 2 11
-5 9 -16 -2 -12 1 -15 8 -11 7 4 4 -5 -6 -21 -10 -16 -19 -30 -20 -32 -5 -9
-44 -9 -44 0 0 5 7 7 16 4 9 -3 12 -2 9 4 -4 6 -3 9 2 8 4 -2 9 1 10 6 1 5 7
13 15 17 7 5 8 9 2 9 -6 0 -14 -3 -18 -7 -4 -4 -15 -8 -24 -8 -9 0 -18 -6 -18
-12 -1 -7 -2 -18 -3 -24 0 -5 -7 -7 -13 -3 -7 4 -10 3 -5 -1 4 -5 1 -15 -7
-24 -8 -9 -16 -20 -18 -26 -2 -5 -6 -9 -10 -7 -5 1 -7 -4 -5 -10 1 -7 -4 -12
-10 -11 -7 2 -13 -3 -13 -10 0 -6 -23 -32 -50 -56 -36 -33 -47 -48 -39 -57 7
-8 6 -15 -2 -20 -7 -4 -9 -3 -6 3 4 6 0 13 -8 17 -8 3 -15 1 -15 -4 0 -5 -9
-12 -20 -15 -11 -3 -20 -11 -20 -17 0 -6 11 -3 25 6 14 9 25 12 25 7 0 -5 -13
-14 -30 -21 -16 -7 -28 -15 -26 -19 3 -4 -7 -8 -21 -9 -15 -1 -23 1 -19 5 4 5
13 8 18 8 6 0 13 7 15 15 4 13 3 13 -6 0 -6 -8 -11 -11 -11 -6 0 5 -6 4 -12
-2 -25 -19 -89 -52 -103 -52 -8 0 -15 -4 -15 -10 0 -5 8 -7 18 -3 11 3 9 0 -6
-12 -12 -9 -28 -14 -35 -12 -7 3 -4 6 6 6 10 1 15 6 12 11 -5 8 -11 7 -20 0
-8 -7 -19 -9 -25 -5 -5 3 -10 0 -10 -7 0 -9 -3 -9 -10 2 -8 12 -10 12 -10 1 0
-8 -3 -11 -7 -8 -3 4 -13 1 -21 -6 -13 -10 -14 -9 -7 3 6 12 5 13 -6 3 -7 -7
-24 -13 -37 -13 -13 0 -21 -4 -18 -8 2 -4 -6 -8 -19 -8 -13 0 -21 4 -18 9 3 5
0 8 -8 5 -8 -3 -14 -10 -14 -16 0 -5 -4 -14 -9 -19 -5 -5 -6 -3 -2 5 4 7 1 12
-8 12 -9 0 -16 6 -16 13 0 9 -2 9 -8 0 -5 -9 -29 -11 -75 -8 -40 2 -65 0 -62
-6 4 -5 2 -9 -4 -9 -5 0 -11 5 -13 12 -6 16 -48 21 -65 6 -11 -9 -13 -8 -11 3
2 9 -6 14 -24 13 -15 0 -25 4 -22 8 3 4 0 8 -5 8 -6 0 -11 -5 -11 -12 0 -6 -8
-1 -19 10 -16 19 -41 29 -79 31 -7 1 -10 6 -7 11 4 6 3 10 -2 9 -22 -4 -44 2
-39 10 4 5 -5 8 -19 6 -18 -2 -25 2 -23 14 3 18 -21 22 -41 7 -11 -9 -12 -6
-6 13 5 16 4 21 -3 17 -6 -4 -16 2 -22 13 -7 13 -16 18 -27 14 -9 -4 -14 -2
-10 3 3 6 -3 16 -15 23 -11 7 -17 8 -13 2 3 -6 1 -11 -4 -11 -6 0 -11 5 -11
11 0 8 -4 8 -14 0 -10 -8 -16 -9 -21 -1 -4 6 -1 9 7 8 7 -2 11 4 9 12 -2 8 -4
20 -4 27 0 7 -4 10 -8 8 -4 -3 -10 2 -13 11 -3 9 -11 12 -18 8 -7 -5 -9 -2 -6
7 3 8 -5 22 -20 33 -14 11 -22 14 -18 8 4 -7 2 -12 -3 -12 -6 0 -11 6 -11 13
0 8 -4 7 -11 -3 -8 -12 -9 -11 -7 5 2 12 -2 19 -10 17 -8 -1 -11 2 -7 8 4 7
12 7 26 0 33 -18 21 -3 -15 18 -25 15 -37 17 -45 9 -8 -8 -11 -8 -11 0 0 6 5
13 12 15 15 5 -20 55 -42 61 -11 4 -11 5 3 6 10 0 20 -6 23 -14 4 -8 10 -12
16 -9 5 3 -1 14 -13 25 -12 10 -26 16 -30 13 -5 -3 -9 -1 -9 5 0 5 5 13 10 16
6 3 10 1 10 -4 0 -6 5 -11 11 -11 8 0 7 5 -1 15 -7 9 -19 14 -26 11 -7 -3 -16
-1 -20 5 -3 6 -13 8 -21 4 -13 -4 -13 -3 -4 8 9 11 7 17 -6 28 -15 12 -16 12
-10 -4 4 -11 3 -16 -3 -12 -5 3 -8 19 -6 36 3 24 1 27 -10 18 -13 -10 -18 -6
-15 14 0 4 -6 7 -15 7 -10 0 -14 -6 -11 -14z m8 -43 c13 -16 12 -17 -3 -4 -10
7 -18 15 -18 17 0 8 8 3 21 -13z m1766 -88 c0 -8 -4 -15 -9 -15 -10 0 -11 14
-1 23 9 10 10 9 10 -8z m103 -29 c0 -2 -6 -9 -14 -15 -11 -9 -16 -9 -22 0 -4
7 -3 9 4 5 6 -3 13 -2 17 4 6 10 15 14 15 6z m-47 -71 c-3 -9 -8 -14 -10 -11
-3 3 -2 9 2 15 9 16 15 13 8 -4z m-143 -32 c-11 -8 -17 -20 -14 -26 4 -7 4 -9
0 -5 -5 4 -26 -14 -48 -40 -23 -26 -47 -49 -55 -50 -12 -3 -12 -6 -1 -20 10
-12 10 -14 1 -8 -8 4 -13 2 -13 -6 0 -11 -2 -10 -9 0 -6 10 -10 8 -15 -10 -5
-18 -8 -20 -15 -9 -6 10 -1 21 16 37 14 13 30 24 35 24 5 0 6 5 2 12 -4 6 -3
9 2 6 10 -6 36 17 28 25 -3 2 12 19 33 37 21 18 29 30 19 26 -19 -7 -19 -6 -2
12 10 12 25 18 37 15 20 -5 20 -6 -1 -20z m90 -3 c0 -5 -5 -10 -11 -10 -5 0
-7 5 -4 10 3 6 8 10 11 10 2 0 4 -4 4 -10z m-1500 -46 c6 -14 14 -23 19 -20 5
3 11 -1 15 -9 3 -8 0 -17 -7 -21 -7 -4 -9 -4 -5 1 4 4 -6 18 -23 32 -16 14
-27 29 -23 34 8 14 14 11 24 -17z m-167 1 c-3 -9 -8 -14 -10 -11 -3 3 -2 9 2
15 9 16 15 13 8 -4z m1547 -66 c0 -4 -9 -7 -19 -6 -11 0 -18 4 -16 7 6 9 35 8
35 -1z m-1242 -55 c8 5 10 2 6 -9 -5 -11 -10 -13 -19 -5 -6 5 -14 8 -16 5 -3
-2 -6 5 -6 17 -2 19 -1 19 11 3 7 -10 18 -15 24 -11z m27 -24 c3 -5 1 -10 -4
-10 -6 0 -11 5 -11 10 0 6 2 10 4 10 3 0 8 -4 11 -10z m1095 -5 c-7 -9 -15
-13 -19 -10 -3 3 1 10 9 15 21 14 24 12 10 -5z m-31 -28 c0 -9 -2 -8 -6 1 -2
6 -10 9 -15 6 -7 -4 -8 -2 -4 5 9 13 26 5 25 -12z m75 7 c5 -14 4 -15 -9 -4
-17 14 -19 20 -6 20 5 0 12 -7 15 -16z m-1074 1 c0 -2 -6 -8 -13 -14 -10 -8
-14 -7 -14 2 0 8 6 14 14 14 7 0 13 -1 13 -2z m1054 -14 c3 -4 -1 -16 -8 -26
-10 -14 -15 -15 -21 -5 -5 9 -4 11 3 6 7 -4 12 -2 12 3 0 6 -8 11 -17 11 -15
0 -16 2 -3 10 19 12 27 12 34 1z m-1244 -17 c0 -8 -19 -13 -24 -6 -3 5 1 9 9
9 8 0 15 -2 15 -3z m228 -19 c-3 -3 -9 2 -12 12 -6 14 -5 15 5 6 7 -7 10 -15
7 -18z m832 14 c0 -5 -4 -8 -9 -5 -5 3 -12 -1 -15 -10 -4 -9 -9 -14 -13 -11
-7 8 15 37 28 37 5 0 9 -5 9 -11z m85 1 c-3 -5 -12 -10 -18 -10 -7 0 -6 4 3
10 19 12 23 12 15 0z m50 -20 c1 -10 -2 -17 -6 -14 -4 2 -9 -2 -12 -8 -2 -8
-8 -9 -13 -4 -5 5 -4 11 4 13 6 3 12 9 12 14 0 6 -6 7 -12 3 -9 -5 -8 -2 1 9
16 20 24 16 26 -13z m-940 0 c3 -5 1 -10 -4 -10 -6 0 -11 5 -11 10 0 6 2 10 4
10 3 0 8 -4 11 -10z m752 -5 c0 -8 -4 -12 -9 -9 -5 3 -6 10 -3 15 9 13 12 11
12 -6z m-7 -29 c0 -3 -4 -8 -10 -11 -5 -3 -10 -1 -10 4 0 6 5 11 10 11 6 0 10
-2 10 -4z m-822 -31 c-3 -3 -9 2 -12 12 -6 14 -5 15 5 6 7 -7 10 -15 7 -18z
m640 -20 c-3 -3 -9 2 -12 12 -6 14 -5 15 5 6 7 -7 10 -15 7 -18z m-647 -2 c13
-17 13 -17 -6 -3 -11 8 -22 16 -24 17 -2 2 0 3 6 3 6 0 17 -8 24 -17z m696
-59 c-3 -3 -12 -4 -19 -1 -8 3 -5 6 6 6 11 1 17 -2 13 -5z m-155 -28 c7 4 8 2
4 -5 -9 -13 -26 -5 -25 12 0 9 2 8 6 -1 2 -6 10 -9 15 -6z m-282 -6 c0 -5 -2
-10 -4 -10 -3 0 -8 5 -11 10 -3 6 -1 10 4 10 6 0 11 -4 11 -10z m97 -3 c3 -4
12 -2 20 4 9 9 13 8 13 0 0 -11 -15 -16 -35 -11 -27 7 -61 5 -66 -3 -3 -5 -9
-2 -12 6 -4 11 4 13 34 12 22 -1 42 -5 46 -8z"/>
<path d="M2014 638 l-19 -23 23 19 c21 18 27 26 19 26 -2 0 -12 -10 -23 -22z"/>
<path d="M467 956 c-3 -8 -3 -17 1 -21 4 -4 7 -10 7 -13 1 -18 27 -52 36 -46
7 4 6 10 0 18 -6 7 -7 17 -3 21 4 5 1 4 -7 0 -10 -6 -13 -4 -9 6 3 8 0 23 -7
32 -10 15 -14 15 -18 3z"/>
<path d="M2206 951 c-3 -5 -15 -7 -25 -4 -29 8 -33 -12 -6 -37 l24 -23 7 27
c4 19 11 25 22 21 12 -4 13 -3 2 10 -15 18 -17 18 -24 6z m-15 -28 c13 -16 12
-17 -3 -4 -17 13 -22 21 -14 21 2 0 10 -8 17 -17z"/>
<path d="M2293 893 c4 -3 1 -13 -6 -22 -11 -14 -10 -14 5 -2 16 12 16 31 1 31
-4 0 -3 -3 0 -7z"/>
<path d="M2093 799 c-2 -16 1 -17 18 -9 10 6 19 14 19 17 0 3 -3 3 -7 0 -3 -4
-11 -3 -17 3 -8 6 -12 3 -13 -11z"/>
<path d="M576 765 c9 -14 21 -25 26 -25 5 0 2 7 -6 16 -9 8 -16 20 -16 25 0 5
-5 9 -10 9 -6 0 -3 -11 6 -25z"/>
<path d="M1930 659 c0 -5 5 -7 10 -4 6 3 10 8 10 11 0 2 -4 4 -10 4 -5 0 -10
-5 -10 -11z"/>
<path d="M2132 621 c-17 -17 -21 -26 -13 -34 6 -6 11 -7 11 -3 0 5 8 2 18 -5
14 -11 15 -11 5 1 -10 11 -10 17 2 30 24 26 2 37 -23 11z m28 6 c0 -2 -10 -12
-22 -23 l-23 -19 19 23 c18 21 26 27 26 19z"/>
<path d="M2014 499 c-8 -14 13 -18 30 -6 16 12 16 13 -4 13 -12 0 -23 -4 -26
-7z"/>
<path d="M1472 237 c-8 -10 -6 -13 7 -13 11 0 17 6 14 13 -3 7 -6 13 -8 13 -1
0 -7 -6 -13 -13z"/>
<path d="M1530 240 c0 -5 5 -10 10 -10 6 0 10 5 10 10 0 6 -4 10 -10 10 -5 0
-10 -4 -10 -10z"/>
<path d="M1323 233 c-19 -7 -15 -22 5 -18 9 1 25 -2 34 -6 11 -6 19 -5 24 3 5
7 3 8 -6 3 -10 -6 -12 -4 -6 10 5 14 4 16 -7 7 -8 -7 -18 -8 -23 -3 -5 5 -15
6 -21 4z"/>
</g>
</svg>
